# xmcd
#
# Track frame offsets:
# 150
# 6787
# 24703
# 41981
# 56547
# 74992
# 93721
# 110238
# 131524
# 154346
# 165509
# 179154
# 192172
# 208286
# 272253
# 294840
#
# Disc length: 4143 seconds
#
#
# Revision: 0
# Processed by: cddbd v1.5.1PL2 Copyright (c) Steve Scherf et al.
# Submitted via: FreeRIP 2.944 
#
DISCID=f9102d10
DTITLE=Jaylib - The Rough Drafts
DYEAR=2002
DGENRE=Hip-Hop
TTITLE0=Direct From... (LA to Detroit)
TTITLE1=Raw Addict
TTITLE2=The Red
TTITLE3=Nowadayz
TTITLE4=Bounce Pt. 1
TTITLE5=Pillz
TTITLE6=Heist
TTITLE7=Popshit
TTITLE8=The Stars
TTITLE9=Rockforeverybody Pt. 1
TTITLE10=Turn It Up feat. YNQ
TTITLE11=Strip Club
TTITLE12=Eyecantakeyouthere/Follow
TTITLE13=Infinity-Dilla Mix
TTITLE14=[skit]
TTITLE15=Quasimoto-Hydrant Game, Dilla version
EXTD=
EXTT0=
EXTT1=
EXTT2=
EXTT3=
EXTT4=
EXTT5=
EXTT6=
EXTT7=
EXTT8=
EXTT9=
EXTT10=
EXTT11=
EXTT12=
EXTT13=
EXTT14=
EXTT15=
PLAYORDER=
